PathFileType	4	(X/Y/Z)	C:/Users/beibeiliu/ov580/test_trc/User3\sequence.36_training_dense_left.trc
DataRate	CameraRate	NumFrames	NumMarkers	Units	OrigDataRate	OrigDataStartFrame	OrigNumFrames
120	120	23	19	mm	120	1	252
Frame#	Time	ThumbCMC			ThumbMCP			ThumbIP			ThumbTip			IndexMCP			IndexPIP			IndexTip			MiddleMCP			MiddlePIP			MiddleTip			RingMCP			RingPIP			RingTip			PinkyMCP			PinkyPIP			PinkyTip			BackHand1			BackHand2			BackHand3	
		X0	Y0	Z0	X1	Y1	Z1	X2	Y2	Z2	X3	Y3	Z3	X4	Y4	Z4	X5	Y5	Z5	X6	Y6	Z6	X7	Y7	Z7	X8	Y8	Z8	X9	Y9	Z9	X10	Y10	Z10	X11	Y11	Z11	X12	Y12	Z12	X13	Y13	Z13	X14	Y14	Z14	X15	Y15	Z15	X16	Y16	Z16	X17	Y17	Z17	X18	Y18	Z18	
0	0	-186.774	-17.6406	60.0312	-170.83	-34.3843	37.1943	-158.948	-49.3063	11.8396	-161.524	-68.1643	-9.90989	-205.008	-36.0655	-15.0919	-192.1	-60.5227	-30.2165	-178.655	-91.682	-19.7797	-221.228	-48.3644	-17.5978	-208.783	-79.5278	-22.8622	-199.456	-95.3092	11.7644	-233.602	-61.8978	-5.74994	-222.215	-88.0565	-0.605497	-213.025	-87.3191	32.5367	-250.815	-70.4623	9.30849	-235.952	-89.3887	16.8487	-223.776	-78.6596	43.5391	-250.927	-19.2446	31.5238	-252.876	-10.9944	67.2156	-221.984	-2.74773	45.8754	
1	0.00833333	-184.515	-20.5396	55.8537	-167.376	-34.7864	32.9443	-161.561	-49.4196	9.09604	-159.805	-66.5482	-13.2946	-201.945	-33.4495	-19.7576	-191.808	-60.6607	-37.1231	-181.847	-90.2906	-28.2695	-217.851	-44.1918	-24.5629	-209.279	-71.4932	-32.9081	-200.683	-96.0479	-1.09327	-237.132	-56.4389	-10.5565	-222.521	-83.2087	-8.78916	-211.892	-85.8485	27.5826	-249.601	-60.7046	5.43625	-233.98	-87.2533	12.5099	-224.731	-82.634	38.0616	-248.049	-15.9107	32.0206	-247.625	-7.26124	60.9543	-215.276	-2.37837	41.9536	
2	0.0166667	-180.111	-23.6518	54.5735	-164.966	-36.6682	32.0967	-154.758	-51.035	1.32597	-155.874	-63.9139	-14.3275	-192.545	-31.8207	-27.2225	-189.948	-54.1272	-43.2158	-178.541	-82.7887	-41.3437	-217.686	-37.1307	-27.6378	-208.955	-66.1132	-41.975	-198.69	-94.9484	-19.0106	-230.436	-48.1867	-15.8045	-221.376	-81.8646	-14.9456	-213.41	-87.7011	16.567	-248.532	-57.5557	-2.28787	-235.858	-83.8618	3.18233	-224.185	-81.3544	28.5166	-243.479	-12.8156	27.75	-241.023	-7.49784	57.5689	-210.64	-2.94883	42.068	
3	0.025	-171.291	-28.0668	45.3433	-160.233	-40.8441	24.3478	-150.356	-53.0247	-1.87795	-148.121	-65.2808	-19.4361	-188.855	-30.013	-31.7986	-180.605	-51.9635	-53.6573	-181.697	-78.0351	-54.8152	-210.021	-31.3712	-32.6123	-206.412	-60.5492	-53.6657	-201.973	-93.5509	-38.4563	-225.62	-46.3015	-24.6996	-221.99	-78.3216	-26.8182	-213.012	-91.024	-1.41694	-241.521	-51.5831	-7.64924	-231.92	-80.0112	-8.95262	-222.268	-85.7647	19.0442	-234.525	-13.0111	20.5944	-237.725	-8.61678	52.2444	-201.681	-5.23527	35.1828	
4	0.0333333	-170.014	-37.1037	44.0497	-153.105	-48.5225	17.7304	-140.627	-60.0769	-5.4591	-137.875	-71.6542	-26.6359	-178.364	-29.3187	-34.1762	-174.907	-44.4925	-59.9929	-171.845	-73.2744	-70.392	-201.284	-30.493	-44.2086	-199.834	-56.1453	-65.551	-199.423	-88.7316	-62.2947	-225.655	-46.973	-30.6031	-219.413	-79.1192	-37.7817	-214.38	-94.8427	-9.49422	-242.069	-55.4943	-16.5093	-230.91	-79.3067	-18.163	-221.948	-89.6936	9.91461	-228.011	-13.8204	15.7161	-224.713	-11.0581	45.436	-194.665	-12.4793	30.3684	
5	0.0416667	-164.2	-46.4686	35.1002	-148.135	-57.9408	15.1175	-134.83	-69.1685	-10.9564	-126.75	-81.382	-28.8483	-169.615	-34.1143	-36.6486	-168.421	-45.9257	-68.6331	-163.691	-67.9117	-82.9022	-199.173	-32.7995	-48.0802	-196.18	-49.3305	-74.3229	-201.023	-83.9369	-81.9976	-221.528	-49.806	-37.4157	-220.904	-81.4068	-46.5558	-216.976	-100.673	-23.7964	-236.308	-57.065	-23.4409	-230.641	-82.2614	-26.111	-222.32	-93.5997	1.72169	-217.51	-18.9223	13.4634	-220.228	-17.4055	41.7664	-184.436	-20.6439	26.4942	
6	0.05	-156.535	-54.9726	31.725	-139.497	-68.1123	12.7814	-127.575	-80.7617	-6.00006	-117.056	-91.4066	-24.68	-165.795	-41.5374	-45.2393	-155.911	-47.817	-67.7458	-154.898	-64.7225	-91.2998	-194.768	-38.2362	-52.7368	-191.372	-48.5951	-78.3842	-196.333	-80.5274	-99.8504	-212.283	-54.9057	-40.9872	-217.475	-84.365	-54.2052	-211.449	-110.546	-30.549	-234.633	-64.6808	-27.9697	-227.896	-93.5441	-26.9326	-218.738	-101.658	-1.83232	-210.429	-27.942	8.41422	-215.604	-23.0843	37.7085	-181.541	-27.0949	22.3743	
7	0.0583333	-152.483	-61.759	33.5781	-135.581	-77.1586	15.6185	-114.963	-90.3645	-5.63795	-102.94	-102.656	-17.4889	-158.206	-50.6092	-46.3312	-146.601	-56.6643	-73.1203	-144.739	-64.7385	-94.8123	-187.822	-46.0402	-55.958	-187.719	-53.5784	-82.3277	-189.161	-79.4414	-111.816	-207.964	-63.4412	-46.2043	-217.27	-92.488	-57.2269	-214.008	-117.118	-37.4453	-230.518	-73.48	-33.2691	-226.232	-98.5773	-30.8553	-214.12	-108.642	-1.88551	-210.087	-33.2477	3.10592	-209.763	-28.3087	30.4681	-172.894	-34.2925	16.6266	
8	0.0666667	-148.188	-72.0879	29.1909	-131.451	-88.8754	13.4414	-113.963	-103.157	-1.64071	-97.408	-117.333	-15.4611	-152.621	-63.5283	-45.8295	-140.566	-67.9301	-74.4029	-130.671	-76.2047	-97.6307	-181.283	-56.5335	-55.2144	-184.79	-63.3984	-87.6619	-185.46	-80.5084	-114.762	-205.384	-74.4349	-50.0531	-213.677	-102.518	-59.1675	-209.262	-128.638	-36.9708	-227.106	-78.9953	-31.9008	-223.964	-106.947	-30.9005	-213.415	-117.867	-2.38649	-201.244	-42.28	-2.66932	-204.207	-34.5052	28.8645	-169.253	-45.2351	14.0481	
9	0.075	-145.738	-79.8764	30.4325	-123.914	-100.194	17.622	-106.499	-115.966	5.74323	-97.9321	-132.112	-7.1488	-145.385	-76.7296	-46.8902	-137.671	-80.1847	-70.0431	-127.716	-87.3786	-95.0106	-173.675	-68.4432	-58.722	-174.07	-75.3718	-86.3846	-178.238	-91.0518	-114.115	-197.05	-86.3017	-51.5613	-210.493	-112.059	-58.7849	-208.809	-137.558	-35.6102	-217.638	-87.1393	-31.9345	-219.967	-117.526	-26.5073	-208.836	-124.381	-1.36187	-197.298	-48.8514	-4.98627	-197.02	-40.6203	21.6678	-162.103	-53.4729	12.8716	
10	0.0833333	-138.744	-86.126	29.8613	-122.159	-107.238	20.1177	-105.53	-127.539	7.15929	-93.8573	-145.307	-3.68238	-142.15	-86.1051	-47.6182	-129.413	-93.0984	-69.2758	-123.065	-104.518	-95.4733	-169.859	-78.6888	-60.2361	-170.079	-88.2131	-84.6526	-177.561	-106.306	-111.404	-198.334	-94.3765	-48.0323	-205.124	-122.791	-55.0234	-203.766	-147.736	-29.666	-212.668	-95.9577	-30.8414	-214.617	-125.399	-23.739	-204.461	-129.494	2.80521	-192.025	-55.4568	-5.88968	-191.786	-47.3422	19.4723	-158.943	-58.4991	10.6894	
11	0.0916667	-140.269	-87.8251	33.7549	-118.379	-111.111	25.5674	-103.49	-132.475	12.7892	-99.0091	-151.258	0.372734	-137.075	-91.8957	-45.4634	-125.185	-102.643	-69.5248	-121.183	-117.35	-88.2974	-166.898	-86.3438	-55.7515	-169.518	-100.001	-84.5318	-174.185	-127.685	-106.892	-193.194	-101.29	-43.7647	-197.12	-131.7	-49.542	-200.308	-152.776	-24.25	-207.685	-108.072	-30.0949	-208.322	-130.313	-19.9066	-199.12	-132.537	11.4992	-189.267	-59.7317	-8.01258	-192.176	-48.657	20.5467	-154.425	-64.3919	10.6399	
12	0.1	-137.66	-85.6982	29.9797	-121.162	-109.277	24.1336	-100.906	-131.284	15.5274	-94.6678	-151.624	3.08315	-133.835	-93.348	-45.3823	-120.773	-106.895	-66.4632	-117.388	-126.906	-81.4706	-163.258	-92.2516	-56.3944	-165.93	-111.808	-82.0904	-169.174	-141.102	-93.932	-191.379	-108.8	-42.3669	-188.965	-141.885	-42.0704	-188.508	-156.468	-13.7588	-207.988	-111.987	-24.3095	-202.557	-136.34	-13.5064	-187.314	-133.413	16.2214	-186.322	-66.503	-7.95814	-191.797	-51.5908	22.679	-157.394	-62.3397	12.3437	
13	0.108333	-135.974	-76.134	34.2698	-112.443	-98.7919	25.5292	-94.1471	-119.33	14.729	-90.0594	-142.535	3.26932	-137.587	-89.8147	-43.2522	-121.215	-103.435	-64.4287	-111.796	-132.885	-75.3305	-162.707	-95.4833	-56.5777	-157.408	-119.589	-76.3612	-153.821	-152.4	-77.6274	-182.735	-116.134	-39.6055	-179.299	-144.069	-36.0146	-171.91	-155.103	-5.55193	-196.975	-122.725	-21.5426	-186.968	-141.652	-2.3351	-173.682	-130.843	19.902	-190.034	-70.0452	-7.39941	-196.404	-53.5491	19.2253	-161.379	-55.14	12.0043	
14	0.116667	-136.623	-60.2724	31.9984	-111.679	-77.3053	27.6699	-88.7064	-96.1016	18.172	-83.3964	-119.982	7.14563	-136.171	-85.8496	-45.0562	-118.511	-100.802	-62.4311	-102.602	-127.026	-64.2364	-158.44	-97.3687	-50.059	-146.103	-123.037	-67.4086	-133.796	-159.4	-55.8136	-172.478	-120.074	-32.431	-160.288	-147.165	-23.2048	-151.187	-147.495	6.01836	-187.639	-131.212	-12.1023	-172.251	-143.45	3.99875	-159.855	-124.987	30.4009	-197.552	-74.2229	-4.57173	-201.373	-60.0557	19.8887	-169.427	-52.9644	8.03464	
15	0.125	-142.71	-46.7049	30.2304	-113.222	-58.4648	24.6958	-85.4034	-72.2846	15.001	-75.7816	-93.4726	12.1086	-134.381	-78.2519	-41.572	-110.54	-90.9324	-57.5779	-90.78	-117.686	-54.801	-156.013	-99.6466	-44.9217	-131.028	-123.808	-58.6477	-111.832	-147.5	-42.4161	-162.115	-120.528	-23.9149	-140.526	-139.964	-13.0553	-133.897	-135.239	19.0243	-172.726	-132.195	-3.37735	-151.984	-136.782	12.6507	-145.366	-116.947	35.6718	-193.972	-81.0639	-3.56752	-206.146	-64.7633	21.1811	-174.977	-49.8227	3.78308	
16	0.133333	-151.964	-33.6361	29.3173	-117.01	-39.9036	21.7495	-92.0861	-47.9746	15.8522	-75.1708	-70.3628	8.83033	-136.463	-69.4114	-38.9592	-108.067	-81.9191	-54.6097	-84.0319	-95.6074	-49.2601	-150.774	-96.211	-39.6148	-123.468	-115.548	-52.0265	-96.4468	-130.378	-33.9289	-147.827	-113.038	-18.7491	-124.796	-129.208	-3.71512	-119.284	-116.758	28.7478	-156.622	-125.195	2.15076	-137.762	-126.155	18.3575	-136.521	-107.151	40.3885	-195.137	-81.8522	1.83823	-207.903	-68.3135	20.2664	-182.66	-49.8103	3.44601	
17	0.141667	-160.672	-24.006	25.8535	-130.537	-23.4536	22.8035	-101.32	-26.1352	14.9008	-78.6673	-42.5975	9.23554	-137.923	-57.4677	-38.0131	-107.824	-66.6756	-52.9524	-81.6364	-72.5714	-46.4871	-142.019	-89.5138	-40.2873	-113.665	-98.4247	-48.3234	-81.1515	-108.354	-26.7358	-139.095	-106.571	-14.387	-113.006	-112.59	-1.4531	-107.769	-93.6313	27.7604	-146.039	-113.631	5.69096	-124.181	-109.536	25.8418	-128.637	-92.5299	44.3062	-190.259	-83.2033	2.02253	-207.885	-75.149	23.5305	-189.551	-50.5451	5.81807	
18	0.15	-171.303	-18.2622	21.7128	-143.523	-12.0177	18.4732	-110.338	-7.31036	7.75594	-90.939	-21.976	6.11022	-141.276	-52.3737	-36.8829	-112.159	-51.1553	-53.5191	-82.8504	-53.1309	-46.6237	-139.688	-80.6269	-35.7547	-104.211	-87.0649	-44.1311	-76.7068	-83.4187	-28.5854	-131.773	-94.6929	-9.81962	-101.728	-92.5762	4.88241	-103.207	-70.7934	32.9752	-133.852	-102.363	12.0803	-114.103	-87.7499	28.2854	-123.282	-71.2257	45.9121	-185.458	-83.6322	7.79931	-206.723	-79.1718	28.949	-192.175	-53.2104	8.99258	
19	0.158333	-183.219	-18.5458	20.9632	-157.388	-0.110442	11.7442	-130.031	6.92146	1.65802	-103.437	1.45348	-1.29391	-142.433	-49.6566	-40.4616	-120.083	-41.4382	-54.0377	-89.8335	-32.3441	-49.5457	-133.656	-74.4981	-34.7851	-104.12	-67.0429	-44.5179	-74.6426	-56.581	-28.8687	-120.361	-82.592	-5.85983	-97.7814	-69.4489	3.53102	-103.158	-46.3022	30.9731	-124.55	-89.4144	17.4672	-107.554	-69.934	31.0827	-124.548	-52.5227	48.7764	-178.23	-86.1821	10.1343	-199.824	-79.8227	36.1164	-196.501	-52.0194	8.3284	
20	0.166667	-195.519	-22.7592	21.2794	-172.371	0.71891	4.17473	-147.899	13.69	-8.86793	-120.805	13.9352	-11.056	-150.042	-46.1474	-36.8845	-123.894	-33.6419	-55.8717	-99.5287	-15.7906	-54.6441	-132.378	-68.1019	-28.7517	-106.215	-53.8671	-44.0775	-78.3916	-31.476	-31.0736	-119.699	-68.8747	-3.03311	-96.2061	-46.3186	6.51378	-108.335	-25.5159	25.9968	-118.342	-72.3621	20.1156	-108.16	-48.6583	30.9846	-129.147	-33.1465	44.0487	-170.207	-83.9541	17.2694	-190.621	-83.0502	37.9292	-193.771	-61.8676	9.72142	
21	0.175	-203.47	-27.9651	15.9527	-190.638	-4.48439	3.2352	-169.043	13.6886	-14.93	-146.365	19.4919	-16.9405	-153.939	-43.2348	-39.5731	-137.668	-26.7762	-58.7076	-118.188	-5.70292	-61.656	-132.918	-58.2827	-33.1608	-107.036	-41.5595	-43.2765	-89.4812	-13.4546	-36.3337	-121.176	-56.4667	-3.52647	-103.959	-27.7825	1.95169	-118.284	-10.0832	23.9871	-116.922	-54.557	18.1344	-115.915	-28.5164	27.6652	-136.895	-22.0795	42.782	-164.37	-82.027	19.2014	-185.737	-84.8044	44.8254	-194.618	-65.7768	13.308	
22	0.183333	-210.107	-32.1239	18.4197	-197.189	-8.62881	-2.67449	-181.774	11.4853	-20.3815	-157.264	22.2699	-26.5324	-162.877	-42.1031	-39.1859	-145.604	-24.4596	-59.9744	-130.053	-1.20078	-63.1019	-136.369	-52.8799	-32.053	-113.431	-36.7028	-42.8027	-96.8329	-0.14956	-37.0258	-126.804	-47.2914	-6.24225	-110.184	-19.4002	-0.23871	-129.728	-0.818163	19.0758	-117.653	-46.1252	17.9246	-121.957	-19.3318	26.9194	-143.568	-15.2854	43.3095	-160.082	-81.3733	21.6666	-182.363	-86.9006	46.4719	-195.622	-69.0672	13.6865	
